<?xml version="1.0" encoding="utf-8"?>
<!-- Generator: Adobe Illustrator 29.7.1, SVG Export Plug-In . SVG Version: 9.03 Build 0)  -->
<svg version="1.1" id="Layer_1" xmlns="http://www.w3.org/2000/svg" xmlns:xlink="http://www.w3.org/1999/xlink" x="0px" y="0px"
	 viewBox="0 0 649.6 163" style="enable-background:new 0 0 649.6 163;" xml:space="preserve">
<style type="text/css">
	.st0{fill:#E74C3C;}
	.st1{fill:#3498DB;}
	.st2{fill:#F39C12;}
	.st3{enable-background:new    ;}
	.st4{fill:#2C3E50;}
	.st5{fill:#7F8C8D;}
</style>
<rect x="182.7" y="87.6" class="st0" width="466.9" height="8.8"/>
<g transform="translate(60, 50)">
	<path class="st0" d="M-41.7-36.1h81.5c2,0,3.6,1.6,3.6,3.6v65.1c0,2-1.6,3.6-3.6,3.6h-81.5c-2,0-3.6-1.6-3.6-3.6v-65.1
		C-45.3-34.5-43.7-36.1-41.7-36.1z"/>
	<path class="st0" d="M-43.2,31.9h40.1c1.2,0,2.1,1,2.1,2.1v46.7c0,1.2-1,2.1-2.1,2.1h-40.1c-1.2,0-2.1-1-2.1-2.1V34
		C-45.3,32.9-44.3,31.9-43.2,31.9z"/>
	<path class="st1" d="M-22.1-25.8h31c2.5,0,4.5,2,4.5,4.5v41.2c0,2.5-2,4.5-4.5,4.5h-31c-2.5,0-4.5-2-4.5-4.5v-41.2
		C-26.6-23.8-24.5-25.8-22.1-25.8z"/>
	<path class="st2" d="M61.7,20.1L98.8-8v-2.8c0-2.4-1.9-4.3-4.3-4.3H25c-2.4,0-4.3,1.9-4.3,4.3v47.4L64.3,61c4.3,2.4,4.3,8.6,0,11
		L20.7,96.4v3.1c0,2.4,1.9,4.3,4.3,4.3h69.5c2.4,0,4.3-1.9,4.3-4.3V56.2L61.7,28.1C59.1,26.1,59.1,22.1,61.7,20.1z"/>
</g>
<g class="st3">
	<path class="st4" d="M289.7,60.8h-11.6v19.7h-11.4V25.8h23.8c5.5,0,9.9,1.4,13.1,4.2s4.9,7.2,4.9,13.1c0,6.5-1.6,11-4.9,13.7
		S295.8,60.8,289.7,60.8z M295.1,49.4c1.5-1.3,2.2-3.4,2.2-6.2c0-2.8-0.7-4.9-2.2-6.1c-1.5-1.2-3.6-1.8-6.3-1.8h-10.7v16.1h10.7
		C291.5,51.4,293.6,50.8,295.1,49.4z"/>
	<path class="st4" d="M349.5,45.2c3.4,4.3,5.1,9.3,5.1,15.2c0,5.9-1.7,11-5.1,15.2c-3.4,4.2-8.6,6.3-15.5,6.3
		c-7,0-12.1-2.1-15.5-6.3c-3.4-4.2-5.1-9.3-5.1-15.2c0-5.8,1.7-10.9,5.1-15.2c3.4-4.3,8.6-6.4,15.5-6.4
		C340.9,38.8,346.1,40.9,349.5,45.2z M333.9,47.7c-3.1,0-5.5,1.1-7.1,3.3s-2.5,5.3-2.5,9.4c0,4.1,0.8,7.2,2.5,9.4
		c1.7,2.2,4.1,3.3,7.1,3.3c3.1,0,5.5-1.1,7.1-3.3c1.7-2.2,2.5-5.3,2.5-9.4c0-4.1-0.8-7.2-2.5-9.4C339.4,48.8,337,47.7,333.9,47.7z"
		/>
	<path class="st4" d="M389.4,41.9c3.2,2,5,5.5,5.5,10.5h-10.6c-0.1-1.4-0.5-2.4-1.2-3.2c-1.2-1.4-3.1-2.2-5.9-2.2
		c-2.3,0-3.9,0.4-4.9,1.1c-1,0.7-1.5,1.6-1.5,2.5c0,1.2,0.5,2.1,1.6,2.6c1,0.6,4.7,1.5,11,2.9c4.2,1,7.4,2.5,9.5,4.5
		c2.1,2,3.1,4.6,3.1,7.6c0,4-1.5,7.3-4.5,9.8c-3,2.5-7.6,3.8-13.8,3.8c-6.4,0-11.1-1.3-14.1-4c-3-2.7-4.5-6.1-4.5-10.3h10.7
		c0.2,1.9,0.7,3.2,1.4,4c1.3,1.4,3.7,2.1,7.3,2.1c2.1,0,3.7-0.3,5-0.9c1.2-0.6,1.8-1.5,1.8-2.8c0-1.2-0.5-2.1-1.5-2.7
		c-1-0.6-4.7-1.7-11-3.2c-4.6-1.1-7.8-2.6-9.7-4.3c-1.9-1.7-2.8-4.1-2.8-7.3c0-3.7,1.5-6.9,4.4-9.6c2.9-2.7,7.1-4,12.4-4
		C382.1,38.9,386.2,39.9,389.4,41.9z"/>
	<path class="st4" d="M421.7,73v7.9l-5,0.2c-5,0.2-8.4-0.7-10.2-2.6c-1.2-1.2-1.8-3.1-1.8-5.6V48h-5.6v-7.5h5.6V29.1h10.5v11.3h6.6
		V48h-6.6v21.4c0,1.7,0.2,2.7,0.6,3.1c0.4,0.4,1.7,0.6,3.9,0.6c0.3,0,0.7,0,1,0C421,73,421.4,73,421.7,73z"/>
	<path class="st4" d="M448.6,72.6c2.7,0,4.9-0.3,6.6-0.9c3.2-1.1,4.8-3.3,4.8-6.3c0-1.8-0.8-3.2-2.4-4.2c-1.6-1-4.1-1.8-7.5-2.6
		l-5.8-1.3c-5.7-1.3-9.6-2.7-11.8-4.2c-3.7-2.5-5.5-6.5-5.5-11.8c0-4.9,1.8-9,5.3-12.2c3.6-3.2,8.8-4.9,15.7-4.9
		c5.8,0,10.7,1.5,14.8,4.6c4.1,3.1,6.2,7.5,6.4,13.3h-11c-0.2-3.3-1.6-5.6-4.3-7c-1.8-0.9-4-1.4-6.6-1.4c-2.9,0-5.3,0.6-7.1,1.8
		s-2.6,2.8-2.6,5c0,2,0.9,3.4,2.6,4.4c1.1,0.6,3.5,1.4,7.1,2.3l9.4,2.3c4.1,1,7.2,2.3,9.4,4c3.3,2.6,4.9,6.3,4.9,11.2
		c0,5-1.9,9.1-5.7,12.5s-9.2,5-16.2,5c-7.1,0-12.7-1.6-16.8-4.9c-4.1-3.3-6.1-7.7-6.1-13.4H437c0.3,2.5,1,4.4,2,5.6
		C440.9,71.5,444.1,72.6,448.6,72.6z"/>
	<path class="st4" d="M513,54.6h-10.8c-0.2-1.5-0.7-2.9-1.5-4.1c-1.2-1.6-3-2.4-5.5-2.4c-3.6,0-6,1.8-7.3,5.3c-0.7,1.9-1,4.4-1,7.5
		c0,3,0.3,5.4,1,7.2c1.3,3.4,3.6,5,7.1,5c2.5,0,4.2-0.7,5.3-2s1.7-3.1,1.9-5.2h10.8c-0.2,3.2-1.4,6.3-3.5,9.1
		c-3.3,4.6-8.2,6.9-14.7,6.9c-6.5,0-11.3-1.9-14.4-5.8c-3.1-3.9-4.6-8.9-4.6-15c0-7,1.7-12.4,5.1-16.2c3.4-3.9,8.1-5.8,14-5.8
		c5.1,0,9.2,1.1,12.5,3.4C510.5,44.8,512.4,48.8,513,54.6z"/>
	<path class="st4" d="M540,49.8c-4.3,0-7.1,1.4-8.6,4.2c-0.8,1.6-1.2,4-1.2,7.2v19.3h-10.7V40.1h10.1v7.1c1.6-2.7,3.1-4.5,4.3-5.5
		c2-1.7,4.6-2.5,7.7-2.5c0.2,0,0.4,0,0.5,0c0.1,0,0.4,0,0.9,0.1V50c-0.7-0.1-1.3-0.1-1.8-0.1C540.7,49.8,540.3,49.8,540,49.8z"/>
	<path class="st4" d="M559.5,25.5v9.8h-10.7v-9.8H559.5z M559.5,40.1v40.4h-10.7V40.1H559.5z"/>
	<path class="st4" d="M603,44.4c3.3,3.5,4.9,8.6,4.9,15.4c0,7.1-1.6,12.6-4.8,16.3c-3.2,3.7-7.3,5.6-12.4,5.6c-3.2,0-5.9-0.8-8-2.4
		c-1.2-0.9-2.3-2.2-3.4-3.9v21.1h-10.5V40.1H579v6c1.1-1.8,2.3-3.1,3.6-4.2c2.3-1.8,5.1-2.7,8.4-2.7C595.7,39.2,599.7,40.9,603,44.4
		z M597,60.3c0-3.1-0.7-5.9-2.1-8.3c-1.4-2.4-3.7-3.6-6.9-3.6c-3.8,0-6.5,1.8-7.9,5.5c-0.7,1.9-1.1,4.4-1.1,7.3c0,4.7,1.2,8,3.7,9.9
		c1.5,1.1,3.2,1.7,5.3,1.7c2.9,0,5.2-1.1,6.7-3.4C596.2,67.1,597,64.1,597,60.3z"/>
	<path class="st4" d="M633.5,73v7.9l-5,0.2c-5,0.2-8.4-0.7-10.2-2.6c-1.2-1.2-1.8-3.1-1.8-5.6V48h-5.6v-7.5h5.6V29.1h10.5v11.3h6.6
		V48h-6.6v21.4c0,1.7,0.2,2.7,0.6,3.1s1.7,0.6,3.9,0.6c0.3,0,0.7,0,1,0C632.8,73,633.1,73,633.5,73z"/>
</g>
<g class="st3">
	<path class="st5" d="M196.5,139.8h16.2v3.3h-20.1v-37.4h3.9V139.8z"/>
	<path class="st5" d="M224.4,116.6c2.7-1,5.1-1.9,8-1.9c5.3,0,8.5,4.4,8.5,9v12.1c0,2.5,0.4,5.1,1.2,7.5l-3.6,0.5l-1-3.5
		c-1.9,2.2-4,3.4-6.9,3.4c-5.3,0-8.3-4.2-8.3-9.1c0-5.4,3.3-10,8.9-10c2.1,0,4.1,0.6,5.8,1.4v-2.7c0-3.1-1.9-5.3-4.8-5.3
		c-2.4,0-4.7,1.1-7,2.1L224.4,116.6z M237.1,129.1c-1.7-0.7-3.4-1.4-5.3-1.4c-4,0-5.5,3.4-5.5,7c0,2.6,1.4,5.6,4.4,5.6
		c3,0,4.8-2.5,6.4-4.8V129.1z"/>
	<path class="st5" d="M259.4,143.1h-3.9v-14c0-4.7-0.2-9.4-1.2-13.8h3.7l0.9,5.1c2-3.3,5.6-5.7,9.5-5.7c4.4,0,6.7,4.1,6.7,8.8v19.6
		h-3.9v-18.5c0-2.7,0-6.7-3.4-6.7c-3.7,0-8.3,3.7-8.3,13.5V143.1z"/>
	<path class="st5" d="M308.9,114.7c-0.9,3.4-1.2,6.9-1.2,10.4v15.3c0,8.7-6.3,11.2-10.3,11.2c-3.3,0-6.7-1.9-8.8-4.3l2.8-2.4
		c1.6,2,4,3.4,6.6,3.4c4.1,0,6-3.7,6-7.7v-2.2c-2.1,1.4-3.9,2.3-6.7,2.3c-6.8,0-10.1-6.5-10.1-12.5c0-6.6,2.9-13.5,10.6-13.5
		c2.7,0,4.7,0.9,6.8,2.4l0.7-2.4H308.9z M303.8,121.4c-1.2-1.9-3.7-3.4-6.1-3.4c-5.1,0-6.8,5.5-6.8,9.8c0,5.4,2.6,9.7,6.4,9.7
		c2.4,0,5.3-1.6,6.4-3.6V121.4z"/>
	<path class="st5" d="M336.5,115.2h3.9v13.5c0,4.8,0.1,9.6,1.2,14.4h-3.7l-0.9-5.4c-1.8,3.1-5.6,5.9-9.2,5.9c-4.9,0-7-4.2-7-9v-19.3
		h3.9v18.2c0,2.6,0,6.9,3.4,6.9c3.8,0,8.3-4.3,8.3-13.7V115.2z"/>
	<path class="st5" d="M354.8,116.6c2.7-1,5.1-1.9,8-1.9c5.3,0,8.5,4.4,8.5,9v12.1c0,2.5,0.4,5.1,1.2,7.5l-3.6,0.5l-1-3.5
		c-1.9,2.2-4,3.4-6.9,3.4c-5.3,0-8.3-4.2-8.3-9.1c0-5.4,3.3-10,8.9-10c2.1,0,4.1,0.6,5.8,1.4v-2.7c0-3.1-1.9-5.3-4.8-5.3
		c-2.4,0-4.7,1.1-7,2.1L354.8,116.6z M367.5,129.1c-1.7-0.7-3.4-1.4-5.3-1.4c-4,0-5.5,3.4-5.5,7c0,2.6,1.4,5.6,4.4,5.6
		c3,0,4.8-2.5,6.4-4.8V129.1z"/>
	<path class="st5" d="M406.7,114.7c-0.9,3.4-1.2,6.9-1.2,10.4v15.3c0,8.7-6.3,11.2-10.3,11.2c-3.3,0-6.7-1.9-8.8-4.3l2.8-2.4
		c1.6,2,4,3.4,6.6,3.4c4.1,0,6-3.7,6-7.7v-2.2c-2.1,1.4-3.9,2.3-6.7,2.3c-6.8,0-10.1-6.5-10.1-12.5c0-6.6,2.9-13.5,10.6-13.5
		c2.7,0,4.7,0.9,6.8,2.4l0.7-2.4H406.7z M401.6,121.4c-1.2-1.9-3.7-3.4-6.1-3.4c-5.1,0-6.8,5.5-6.8,9.8c0,5.4,2.6,9.7,6.4,9.7
		c2.4,0,5.3-1.6,6.4-3.6V121.4z"/>
	<path class="st5" d="M421.2,130.2c0.2,7.6,3.6,10.2,7.9,10.2c3.1,0,6.1-1.4,8.7-3l1.7,3.5c-3.5,1.6-6.8,2.8-10.7,2.8
		c-8.2,0-11.5-7.1-11.5-14.3c0-7.3,3.4-14.7,11.7-14.7c9.3,0,10.7,10.3,10.7,13.4v2.1H421.2z M435.8,126.9c-0.2-4.6-2.8-8.9-7.1-8.9
		s-6.5,3.3-7.5,8.9H435.8z"/>
	<path class="st5" d="M492.9,127.6v-3.3h12.7v19.4h-3.9v-3.6c-1.9,2.3-4.8,3.6-7.9,3.6c-3,0-11.3-0.5-11.3-18.6
		c0-14.8,4.5-20.3,11.8-20.3c6.3,0,9.3,4.5,9.4,10.3h-3.9c0.3-3.4-1.4-7-5.3-7c-7.8,0-8.1,10.9-8.1,16.4c0,5.2,0.3,15.9,7.6,15.9
		c3.6,0,7.6-2.9,7.6-10.4v-2.5H492.9z"/>
	<path class="st5" d="M532.2,115.2h3.9v13.5c0,4.8,0.1,9.6,1.2,14.4h-3.7l-0.9-5.4c-1.8,3.1-5.6,5.9-9.2,5.9c-4.9,0-7-4.2-7-9v-19.3
		h3.9v18.2c0,2.6,0,6.9,3.4,6.9c3.8,0,8.3-4.3,8.3-13.7V115.2z"/>
	<path class="st5" d="M557.5,118.5h-7.9v-3.3h11.8v27.8h-3.9V118.5z M562.6,108.2c0,1.9-1.5,3.3-3.3,3.3c-1.8,0-3.3-1.4-3.3-3.3
		s1.5-3.3,3.3-3.3C561.2,104.9,562.6,106.3,562.6,108.2z"/>
	<path class="st5" d="M598.6,143.6l-0.8-3.1c-2.3,2.1-3.6,3.1-6.8,3.1c-4.9,0-11.1-3.7-11.1-14.7c0-10.6,6.8-14.3,11.3-14.3
		c2.3,0,4,0.6,5.9,1.6v-11.8h3.9v28.7c0,3.4,0.3,6.9,1.4,10L598.6,143.6z M597,120.2c-1.5-1.2-3.3-2.3-5.3-2.3c-4.2,0-8,3.5-8,11.2
		c0,9,4.7,11.2,7.3,11.2c3,0,4.9-2.2,5.9-4.8V120.2z"/>
	<path class="st5" d="M616.8,130.2c0.2,7.6,3.6,10.2,7.9,10.2c3.1,0,6.1-1.4,8.7-3l1.7,3.5c-3.5,1.6-6.8,2.8-10.7,2.8
		c-8.2,0-11.5-7.1-11.5-14.3c0-7.3,3.4-14.7,11.7-14.7c9.3,0,10.7,10.3,10.7,13.4v2.1H616.8z M631.4,126.9c-0.2-4.6-2.8-8.9-7.1-8.9
		s-6.5,3.3-7.5,8.9H631.4z"/>
</g>
</svg>
